<svg xmlns="http://www.w3.org/2000/svg" xmlns:xlink="http://www.w3.org/1999/xlink" version="1.1" x="0px" y="0px" viewBox="0 0 100 125" enable-background="new 0 0 100 100" xml:space="preserve"><g><g><g><path fill="#000000" d="M45.492,79.136c-0.034,0-0.068-0.003-0.103-0.008c-1.298-0.204-2.601-0.5-3.871-0.878     c-0.344-0.104-0.539-0.465-0.438-0.81c0.104-0.343,0.467-0.536,0.809-0.438c1.216,0.363,2.461,0.646,3.701,0.841     c0.355,0.056,0.599,0.388,0.543,0.742C46.083,78.907,45.806,79.136,45.492,79.136z M39.266,77.421     c-0.082,0-0.163-0.016-0.243-0.047c-1.224-0.492-2.426-1.072-3.575-1.726c-0.312-0.178-0.421-0.575-0.243-0.887     c0.177-0.313,0.573-0.42,0.886-0.243c1.099,0.624,2.249,1.18,3.418,1.649c0.332,0.133,0.494,0.511,0.36,0.845     C39.767,77.267,39.522,77.421,39.266,77.421z M33.583,74.358c-0.129,0-0.258-0.038-0.371-0.117     c-1.079-0.749-2.122-1.581-3.102-2.476c-0.265-0.241-0.284-0.652-0.042-0.917c0.243-0.265,0.653-0.285,0.918-0.042     c0.938,0.854,1.935,1.651,2.967,2.368c0.295,0.205,0.368,0.609,0.163,0.904C33.99,74.261,33.788,74.358,33.583,74.358z      M28.725,70.109c-0.177,0-0.352-0.071-0.48-0.212c-0.889-0.973-1.722-2.015-2.474-3.101c-0.206-0.294-0.133-0.699,0.162-0.903     c0.295-0.205,0.701-0.133,0.904,0.162c0.721,1.037,1.518,2.035,2.367,2.966c0.242,0.264,0.224,0.675-0.042,0.918     C29.038,70.054,28.881,70.109,28.725,70.109z M24.927,64.891c-0.226,0-0.445-0.118-0.564-0.329     c-0.651-1.146-1.231-2.348-1.725-3.572c-0.133-0.334,0.028-0.713,0.361-0.846c0.335-0.134,0.712,0.026,0.845,0.36     c0.472,1.172,1.025,2.321,1.648,3.415c0.178,0.312,0.068,0.709-0.244,0.887C25.146,64.862,25.036,64.891,24.927,64.891z      M22.388,58.959c-0.28,0-0.538-0.182-0.622-0.463c-0.381-1.27-0.677-2.572-0.88-3.87c-0.056-0.354,0.188-0.687,0.543-0.742     c0.35-0.051,0.687,0.187,0.742,0.542c0.194,1.24,0.477,2.483,0.839,3.696c0.104,0.345-0.091,0.706-0.436,0.809     C22.513,58.95,22.449,58.959,22.388,58.959z"/></g><g><path fill="#000000" d="M21.528,46.155c-0.034,0-0.068-0.003-0.102-0.008c-0.355-0.056-0.598-0.389-0.542-0.743     c0.204-1.3,0.5-2.602,0.879-3.871c0.104-0.344,0.468-0.54,0.809-0.438c0.344,0.104,0.539,0.465,0.438,0.81     c-0.362,1.213-0.645,2.459-0.84,3.701C22.119,45.927,21.842,46.155,21.528,46.155z M23.241,39.93     c-0.081,0-0.162-0.015-0.242-0.047c-0.333-0.133-0.494-0.512-0.361-0.845c0.49-1.22,1.07-2.424,1.726-3.576     c0.177-0.312,0.572-0.421,0.887-0.244c0.312,0.178,0.421,0.574,0.243,0.887c-0.626,1.102-1.181,2.252-1.649,3.417     C23.742,39.775,23.499,39.93,23.241,39.93z M26.305,34.248c-0.128,0-0.258-0.038-0.371-0.116     c-0.294-0.205-0.368-0.61-0.162-0.905c0.75-1.081,1.583-2.124,2.476-3.101c0.242-0.264,0.653-0.282,0.918-0.041     c0.265,0.242,0.284,0.653,0.042,0.918c-0.854,0.935-1.65,1.932-2.369,2.966C26.712,34.15,26.51,34.248,26.305,34.248z      M30.554,29.388c-0.177,0-0.352-0.071-0.479-0.211c-0.243-0.265-0.224-0.676,0.041-0.919c0.975-0.891,2.018-1.724,3.101-2.476     c0.295-0.204,0.698-0.133,0.905,0.163c0.204,0.296,0.131,0.7-0.164,0.905c-1.036,0.719-2.033,1.516-2.966,2.367     C30.867,29.331,30.711,29.388,30.554,29.388z M35.772,25.592c-0.226,0-0.445-0.118-0.564-0.329     c-0.178-0.312-0.068-0.709,0.243-0.887c1.146-0.65,2.347-1.23,3.573-1.724c0.333-0.133,0.712,0.026,0.845,0.36     c0.135,0.334-0.027,0.712-0.36,0.846c-1.172,0.472-2.32,1.025-3.415,1.647C35.992,25.564,35.882,25.592,35.772,25.592z      M41.704,23.052c-0.279,0-0.538-0.182-0.622-0.464c-0.104-0.343,0.091-0.705,0.436-0.809c1.262-0.379,2.564-0.675,3.87-0.881     c0.334-0.054,0.688,0.187,0.743,0.542c0.056,0.354-0.187,0.688-0.542,0.743c-1.247,0.196-2.491,0.479-3.698,0.841     C41.828,23.043,41.767,23.052,41.704,23.052z"/></g><g><path fill="#000000" d="M78.472,46.15c-0.313,0-0.59-0.229-0.641-0.549c-0.195-1.243-0.479-2.488-0.841-3.698     c-0.104-0.345,0.092-0.707,0.436-0.81c0.35-0.104,0.707,0.093,0.809,0.436c0.38,1.268,0.677,2.569,0.882,3.87     c0.056,0.354-0.188,0.688-0.541,0.743C78.541,46.147,78.507,46.15,78.472,46.15z M76.758,39.928     c-0.257,0-0.501-0.154-0.603-0.407c-0.471-1.172-1.025-2.321-1.647-3.414c-0.178-0.312-0.069-0.709,0.243-0.887     c0.31-0.179,0.709-0.068,0.887,0.243c0.65,1.145,1.231,2.347,1.724,3.572c0.135,0.333-0.028,0.712-0.36,0.846     C76.921,39.912,76.84,39.928,76.758,39.928z M73.697,34.248c-0.205,0-0.407-0.097-0.533-0.279     c-0.723-1.038-1.519-2.035-2.367-2.964c-0.243-0.265-0.224-0.676,0.042-0.919c0.265-0.241,0.676-0.223,0.917,0.041     c0.888,0.972,1.721,2.015,2.475,3.101c0.206,0.295,0.132,0.699-0.162,0.904C73.955,34.211,73.825,34.248,73.697,34.248z      M69.451,29.391c-0.156,0-0.313-0.057-0.438-0.17c-0.935-0.854-1.932-1.65-2.967-2.369c-0.295-0.204-0.368-0.609-0.164-0.904     c0.206-0.295,0.611-0.368,0.905-0.163c1.082,0.752,2.127,1.585,3.102,2.477c0.266,0.241,0.284,0.653,0.042,0.918     C69.803,29.319,69.627,29.391,69.451,29.391z M64.23,25.592c-0.109,0-0.22-0.027-0.321-0.086     c-1.096-0.623-2.246-1.178-3.417-1.648c-0.333-0.133-0.494-0.511-0.361-0.845c0.134-0.334,0.512-0.496,0.846-0.361     c1.227,0.492,2.429,1.072,3.575,1.725c0.312,0.178,0.422,0.575,0.244,0.888C64.676,25.474,64.456,25.592,64.23,25.592z      M58.296,23.052c-0.062,0-0.125-0.009-0.188-0.027c-1.206-0.362-2.451-0.646-3.7-0.842c-0.355-0.056-0.598-0.389-0.542-0.743     c0.056-0.355,0.405-0.595,0.742-0.542c1.31,0.206,2.611,0.503,3.874,0.882c0.344,0.104,0.539,0.466,0.436,0.81     C58.834,22.87,58.575,23.052,58.296,23.052z"/></g><g><path fill="#000000" d="M54.513,79.133c-0.315,0-0.591-0.229-0.642-0.55c-0.056-0.354,0.188-0.687,0.542-0.742     c1.24-0.194,2.483-0.477,3.697-0.839c0.349-0.105,0.707,0.093,0.809,0.436c0.104,0.344-0.092,0.705-0.436,0.809     c-1.27,0.381-2.572,0.677-3.869,0.88C54.579,79.131,54.547,79.133,54.513,79.133z M60.733,77.422     c-0.258,0-0.502-0.153-0.604-0.407c-0.135-0.334,0.028-0.713,0.36-0.846c1.172-0.471,2.321-1.024,3.415-1.648     c0.31-0.178,0.709-0.069,0.887,0.244c0.178,0.312,0.068,0.708-0.244,0.886c-1.146,0.651-2.348,1.231-3.572,1.725     C60.896,77.406,60.814,77.422,60.733,77.422z M66.414,74.359c-0.206,0-0.407-0.098-0.533-0.279     c-0.206-0.294-0.132-0.699,0.162-0.903c1.038-0.722,2.035-1.519,2.966-2.368c0.266-0.242,0.678-0.222,0.918,0.042     c0.242,0.265,0.224,0.676-0.042,0.918c-0.973,0.889-2.015,1.722-3.1,2.475C66.672,74.321,66.542,74.359,66.414,74.359z      M71.272,70.114c-0.156,0-0.313-0.056-0.438-0.17c-0.266-0.241-0.285-0.652-0.042-0.918c0.854-0.937,1.651-1.935,2.369-2.967     c0.203-0.295,0.607-0.368,0.903-0.162c0.295,0.204,0.368,0.609,0.163,0.903c-0.749,1.079-1.582,2.123-2.476,3.102     C71.624,70.043,71.449,70.114,71.272,70.114z M75.072,64.895c-0.109,0-0.22-0.028-0.321-0.086     c-0.312-0.178-0.421-0.574-0.243-0.886c0.624-1.098,1.179-2.248,1.648-3.418c0.134-0.333,0.511-0.493,0.846-0.36     c0.333,0.134,0.494,0.512,0.36,0.846c-0.491,1.224-1.071,2.426-1.725,3.575C75.518,64.776,75.298,64.895,75.072,64.895z      M77.612,58.959c-0.061,0-0.124-0.009-0.187-0.026c-0.344-0.104-0.539-0.466-0.437-0.811c0.363-1.211,0.646-2.456,0.842-3.7     c0.056-0.356,0.402-0.596,0.742-0.542c0.355,0.056,0.599,0.389,0.543,0.742c-0.205,1.303-0.502,2.605-0.88,3.874     C78.151,58.777,77.894,58.959,77.612,58.959z"/></g><g><path fill="#000000" d="M50,79.486c-0.667,0-1.329-0.021-1.982-0.065c-0.359-0.023-0.63-0.333-0.605-0.691     c0.023-0.359,0.37-0.632,0.691-0.605c1.251,0.085,2.538,0.085,3.794,0c0.33-0.024,0.667,0.246,0.691,0.605     c0.024,0.358-0.246,0.668-0.605,0.691C51.328,79.466,50.667,79.486,50,79.486z M78.761,52.604c-0.016,0-0.031-0.001-0.045-0.001     c-0.359-0.024-0.63-0.335-0.605-0.692c0.042-0.627,0.063-1.26,0.063-1.897c0-0.639-0.021-1.27-0.063-1.897     c-0.024-0.358,0.247-0.669,0.605-0.692c0.326-0.007,0.668,0.246,0.692,0.604c0.044,0.657,0.065,1.318,0.065,1.985     s-0.021,1.329-0.065,1.984C79.385,52.342,79.1,52.604,78.761,52.604z M21.239,52.604c-0.339,0-0.625-0.263-0.647-0.606     c-0.045-0.655-0.064-1.317-0.064-1.984s0.02-1.328,0.064-1.985c0.024-0.359,0.374-0.613,0.691-0.604     c0.358,0.023,0.63,0.334,0.605,0.692c-0.041,0.628-0.062,1.259-0.062,1.897c0,0.638,0.021,1.271,0.062,1.897     c0.024,0.357-0.246,0.668-0.605,0.692C21.27,52.604,21.254,52.604,21.239,52.604z M51.941,21.904c-0.016,0-0.03,0-0.044-0.001     c-1.256-0.085-2.543-0.084-3.794,0c-0.319,0.026-0.668-0.245-0.691-0.604c-0.024-0.358,0.246-0.669,0.605-0.693     c1.306-0.088,2.654-0.088,3.966,0c0.359,0.024,0.63,0.335,0.605,0.693C52.566,21.642,52.28,21.904,51.941,21.904z"/></g><g><path fill="#000000" d="M18.252,51.285c-0.221,0-0.44-0.094-0.594-0.275c-0.279-0.328-0.239-0.82,0.089-1.1l3.411-2.899     l3.408,2.899c0.329,0.279,0.368,0.771,0.089,1.1c-0.28,0.329-0.773,0.369-1.1,0.089l-2.397-2.041l-2.401,2.041     C18.61,51.224,18.431,51.285,18.252,51.285z"/></g><g><path fill="#000000" d="M78.843,53.459l-3.411-2.899c-0.327-0.279-0.368-0.771-0.089-1.1c0.278-0.329,0.771-0.368,1.1-0.089     l2.4,2.041l2.399-2.041c0.33-0.278,0.819-0.24,1.1,0.089c0.279,0.328,0.24,0.82-0.089,1.1L78.843,53.459z"/></g><g><path fill="#000000" d="M49.686,24.875c-0.179,0-0.358-0.062-0.505-0.187c-0.329-0.279-0.368-0.771-0.089-1.1l2.04-2.399     l-2.04-2.399c-0.279-0.328-0.24-0.819,0.089-1.099c0.33-0.279,0.818-0.24,1.099,0.089l2.901,3.409l-2.901,3.41     C50.125,24.781,49.906,24.875,49.686,24.875z"/></g><g><path fill="#000000" d="M50.558,82.495c-0.221,0-0.439-0.093-0.594-0.274l-2.898-3.407l2.898-3.413     c0.277-0.327,0.769-0.366,1.099-0.089c0.328,0.278,0.368,0.771,0.089,1.1l-2.04,2.402l2.04,2.396     c0.279,0.328,0.24,0.82-0.089,1.1C50.917,82.434,50.736,82.495,50.558,82.495z"/></g></g><g><path fill="#000000" d="M29.529,34.642c-0.402,0-0.743-0.31-0.775-0.718l-0.254-3.14l-3.142-0.254    c-0.429-0.035-0.749-0.411-0.713-0.84c0.034-0.431,0.439-0.76,0.839-0.715l4.463,0.36l0.36,4.462    c0.035,0.43-0.284,0.806-0.714,0.841C29.572,34.641,29.551,34.642,29.529,34.642z"/></g><g><path fill="#000000" d="M74.747,70.957c-0.021,0-0.043,0-0.063-0.002l-4.462-0.36l-0.36-4.463    c-0.036-0.429,0.284-0.805,0.713-0.839c0.418-0.058,0.805,0.284,0.841,0.713l0.254,3.142l3.141,0.254    c0.429,0.034,0.749,0.409,0.714,0.84C75.49,70.648,75.149,70.957,74.747,70.957z"/></g><g><path fill="#000000" d="M66.097,30.162c-0.402,0-0.742-0.309-0.775-0.717c-0.036-0.43,0.284-0.806,0.713-0.841l3.142-0.254    l0.254-3.14c0.034-0.43,0.415-0.758,0.84-0.715c0.43,0.035,0.749,0.412,0.714,0.841l-0.36,4.462L66.16,30.16    C66.14,30.162,66.118,30.162,66.097,30.162z"/></g><g><path fill="#000000" d="M29.937,75.533c-0.021,0-0.043,0-0.064-0.003c-0.43-0.034-0.749-0.41-0.714-0.839l0.36-4.463l4.463-0.36    c0.396-0.056,0.804,0.284,0.839,0.714c0.036,0.43-0.284,0.806-0.713,0.84l-3.142,0.254l-0.254,3.141    C30.68,75.225,30.339,75.533,29.937,75.533z"/></g><g><g><path fill="#000000" d="M42.403,56.985h-0.649c-3.853,0-6.985-3.134-6.985-6.984c0-3.853,3.133-6.985,6.985-6.985h0.649V56.985z      M41.104,44.353c-2.83,0.323-5.035,2.733-5.035,5.648c0,2.914,2.205,5.323,5.035,5.647V44.353z"/></g></g><g><path fill="#000000" d="M34.862,50.65h-8.063c-0.359,0-0.65-0.29-0.65-0.649s0.291-0.65,0.65-0.65h8.063    c0.359,0,0.65,0.291,0.65,0.65S35.222,50.65,34.862,50.65z"/></g><g><rect x="41.562" y="44.91" fill="#000000" width="4.344" height="1.3"/></g><g><rect x="41.562" y="53.791" fill="#000000" width="4.344" height="1.3"/></g><g><g><path fill="#000000" d="M58.246,56.985h-0.65V43.017h0.65c3.852,0,6.984,3.133,6.984,6.984     C65.23,53.852,62.098,56.985,58.246,56.985z M58.896,44.354v11.295c2.83-0.324,5.035-2.733,5.035-5.647     S61.726,44.678,58.896,44.354z"/></g></g><g><path fill="#000000" d="M73.201,50.65h-8.064c-0.359,0-0.649-0.29-0.649-0.649s0.29-0.65,0.649-0.65h8.064    c0.359,0,0.649,0.291,0.649,0.65S73.561,50.65,73.201,50.65z"/></g><g><path fill="#000000" d="M49.562,54.118c-0.166,0-0.333-0.063-0.46-0.19c-0.254-0.254-0.254-0.665,0-0.919l2.391-2.39h-3.869    l4.553-4.547c0.254-0.253,0.665-0.254,0.919,0c0.254,0.255,0.254,0.666,0,0.92l-2.331,2.327h3.867l-4.61,4.608    C49.895,54.055,49.729,54.118,49.562,54.118z"/></g></g></svg>
